<svg width="20" height="20" viewBox="0 0 20 20" fill="none" xmlns="http://www.w3.org/2000/svg">
<path fill-rule="evenodd" clip-rule="evenodd" d="M6.75016 1.47021H13.2502C16.2412 1.47021 18.6668 3.8958 18.6668 6.88688V13.3869C18.6668 16.378 16.2412 18.8035 13.2502 18.8035H6.75016C3.75908 18.8035 1.3335 16.378 1.3335 13.3869V6.88688C1.3335 3.8958 3.75908 1.47021 6.75016 1.47021ZM13.2502 17.1785C15.341 17.1785 17.0419 15.4777 17.0419 13.3869V6.88688C17.0419 4.79605 15.341 3.09521 13.2502 3.09521H6.75022C4.65938 3.09521 2.95855 4.79605 2.95855 6.88688V13.3869C2.95855 15.4777 4.65938 17.1785 6.75022 17.1785H13.2502Z" fill="white"/>
<path fill-rule="evenodd" clip-rule="evenodd" d="M5.3335 10.1361C5.3335 7.74298 7.27375 5.80273 9.66683 5.80273C12.0599 5.80273 14.0002 7.74298 14.0002 10.1361C14.0002 12.5292 12.0599 14.4694 9.66683 14.4694C7.27375 14.4694 5.3335 12.5292 5.3335 10.1361ZM6.95857 10.136C6.95857 11.6288 8.17407 12.8443 9.6669 12.8443C11.1597 12.8443 12.3752 11.6288 12.3752 10.136C12.3752 8.64205 11.1597 7.42764 9.6669 7.42764C8.17407 7.42764 6.95857 8.64205 6.95857 10.136Z" fill="white"/>
<ellipse cx="13.9915" cy="5.47878" rx="0.577416" ry="0.577417" fill="white"/>
</svg>
