<svg width="20" height="20" viewBox="0 0 20 20" fill="none" xmlns="http://www.w3.org/2000/svg">
<path d="M18.4441 4.5132C17.783 4.8032 17.0785 4.99542 16.3441 5.08875C17.0997 4.63765 17.6763 3.92877 17.9474 3.07433C17.243 3.49433 16.4652 3.79099 15.6363 3.95654C14.9675 3.24433 14.0141 2.80322 12.9741 2.80322C10.9564 2.80322 9.33196 4.44098 9.33196 6.44874C9.33196 6.73762 9.35641 7.0154 9.41641 7.27984C6.38644 7.13206 3.70536 5.67986 1.90427 3.46766C1.58983 4.01321 1.40538 4.63765 1.40538 5.30986C1.40538 6.57207 2.05538 7.69095 3.02426 8.33872C2.43871 8.32761 1.86427 8.15761 1.37761 7.88983C1.37761 7.90094 1.37761 7.91539 1.37761 7.92983C1.37761 9.70092 2.64093 11.172 4.29757 11.5109C4.00091 11.592 3.67758 11.6309 3.34203 11.6309C3.1087 11.6309 2.87315 11.6176 2.65204 11.5687C3.12425 13.012 4.46424 14.0731 6.05755 14.1075C4.81757 15.0775 3.24314 15.662 1.53872 15.662C1.23983 15.662 0.953167 15.6486 0.666504 15.612C2.28093 16.6531 4.19424 17.2475 6.25755 17.2475C12.9641 17.2475 16.6308 11.692 16.6308 6.87651C16.6308 6.7154 16.6252 6.55985 16.6174 6.40541C17.3408 5.89208 17.9485 5.25097 18.4441 4.5132Z" fill="white"/>
</svg>
