<svg width="158" height="38" viewBox="0 0 158 38" fill="none" xmlns="http://www.w3.org/2000/svg">
<rect y="3" width="32" height="32" rx="16" fill="#1FA7FF"/>
<path d="M15.5977 27.4844C13.9102 27.4844 12.5078 27.1875 11.3906 26.5938C10.2734 25.9922 9.53906 25.207 9.1875 24.2383C9.0625 23.9102 9 23.5938 9 23.2891C9 22.8203 9.14453 22.4453 9.43359 22.1641C9.72266 21.875 10.0977 21.7305 10.5586 21.7305C10.9258 21.7305 11.2344 21.8125 11.4844 21.9766C11.7422 22.1328 11.9766 22.3945 12.1875 22.7617C12.4531 23.3867 12.8906 23.8555 13.5 24.168C14.1172 24.4805 14.8438 24.6367 15.6797 24.6367C16.625 24.6367 17.3906 24.4336 17.9766 24.0273C18.5703 23.6211 18.8672 23.1055 18.8672 22.4805C18.8672 21.918 18.6445 21.4688 18.1992 21.1328C17.7539 20.7969 17.0039 20.5195 15.9492 20.3008L14.1562 19.9492C10.8047 19.2852 9.12891 17.6836 9.12891 15.1445C9.12891 14.1289 9.40234 13.2305 9.94922 12.4492C10.5039 11.6602 11.2695 11.0547 12.2461 10.6328C13.2305 10.2109 14.3438 10 15.5859 10C17.1406 10 18.4648 10.3086 19.5586 10.9258C20.6523 11.543 21.3867 12.4023 21.7617 13.5039C21.8477 13.7461 21.8906 14.0078 21.8906 14.2891C21.8906 14.7109 21.75 15.0547 21.4688 15.3203C21.1953 15.5781 20.832 15.707 20.3789 15.707C19.9805 15.707 19.6484 15.625 19.3828 15.4609C19.125 15.2969 18.8945 15.0312 18.6914 14.6641C18.1602 13.4609 17.125 12.8594 15.5859 12.8594C14.7109 12.8594 14.0078 13.0508 13.4766 13.4336C12.9453 13.8086 12.6797 14.3047 12.6797 14.9219C12.6797 15.4453 12.8984 15.875 13.3359 16.2109C13.7812 16.5469 14.5 16.8125 15.4922 17.0078L17.2734 17.3711C19.0625 17.7305 20.3633 18.2852 21.1758 19.0352C21.9961 19.7852 22.4062 20.8047 22.4062 22.0938C22.4062 23.75 21.7969 25.0625 20.5781 26.0312C19.3594 27 17.6992 27.4844 15.5977 27.4844Z" fill="white"/>
<path d="M50.125 30.375C47.875 30.375 46.0052 29.9792 44.5156 29.1875C43.026 28.3854 42.0469 27.3385 41.5781 26.0469C41.4115 25.6094 41.3281 25.1875 41.3281 24.7812C41.3281 24.1562 41.5208 23.6562 41.9062 23.2812C42.2917 22.8958 42.7917 22.7031 43.4062 22.7031C43.8958 22.7031 44.3073 22.8125 44.6406 23.0312C44.9844 23.2396 45.2969 23.5885 45.5781 24.0781C45.9323 24.9115 46.5156 25.5365 47.3281 25.9531C48.151 26.3698 49.1198 26.5781 50.2344 26.5781C51.4948 26.5781 52.5156 26.3073 53.2969 25.7656C54.0885 25.224 54.4844 24.5365 54.4844 23.7031C54.4844 22.9531 54.1875 22.3542 53.5938 21.9062C53 21.4583 52 21.0885 50.5938 20.7969L48.2031 20.3281C43.7344 19.4427 41.5 17.3073 41.5 13.9219C41.5 12.5677 41.8646 11.3698 42.5938 10.3281C43.3333 9.27604 44.3542 8.46875 45.6562 7.90625C46.9688 7.34375 48.4531 7.0625 50.1094 7.0625C52.1823 7.0625 53.9479 7.47396 55.4062 8.29688C56.8646 9.11979 57.8438 10.2656 58.3438 11.7344C58.4583 12.0573 58.5156 12.4062 58.5156 12.7812C58.5156 13.3438 58.3281 13.8021 57.9531 14.1562C57.5885 14.5 57.1042 14.6719 56.5 14.6719C55.9688 14.6719 55.526 14.5625 55.1719 14.3438C54.8281 14.125 54.5208 13.7708 54.25 13.2812C53.5417 11.6771 52.1615 10.875 50.1094 10.875C48.9427 10.875 48.0052 11.1302 47.2969 11.6406C46.5885 12.1406 46.2344 12.8021 46.2344 13.625C46.2344 14.3229 46.526 14.8958 47.1094 15.3438C47.7031 15.7917 48.6615 16.1458 49.9844 16.4062L52.3594 16.8906C54.7448 17.3698 56.4792 18.1094 57.5625 19.1094C58.6562 20.1094 59.2031 21.4688 59.2031 23.1875C59.2031 25.3958 58.3906 27.1458 56.7656 28.4375C55.1406 29.7292 52.9271 30.375 50.125 30.375ZM69.3438 30.3594C66.8125 30.3594 64.8021 29.5781 63.3125 28.0156C61.8333 26.4531 61.0938 24.3229 61.0938 21.625C61.0938 18.9479 61.8333 16.8229 63.3125 15.25C64.7917 13.6771 66.7917 12.8906 69.3125 12.8906C70.9792 12.8906 72.4583 13.2604 73.75 14C75.0417 14.7292 75.9167 15.6927 76.375 16.8906C76.5417 17.3073 76.625 17.6823 76.625 18.0156C76.625 18.5573 76.4375 18.9896 76.0625 19.3125C75.6979 19.6354 75.2344 19.7969 74.6719 19.7969C74.224 19.7969 73.849 19.7031 73.5469 19.5156C73.2552 19.3281 72.9896 19.026 72.75 18.6094C71.9479 17.1823 70.849 16.4688 69.4531 16.4688C68.2969 16.4688 67.3854 16.9219 66.7188 17.8281C66.0521 18.7344 65.7188 19.9948 65.7188 21.6094C65.7188 23.2448 66.0469 24.5156 66.7031 25.4219C67.3698 26.3281 68.276 26.7812 69.4219 26.7812C70.8281 26.7812 71.9219 26.125 72.7031 24.8125C73.0156 24.3229 73.3229 23.9792 73.625 23.7812C73.9271 23.5729 74.3125 23.4688 74.7812 23.4688C75.3229 23.4688 75.776 23.6354 76.1406 23.9688C76.5156 24.3021 76.7031 24.7448 76.7031 25.2969C76.7031 25.651 76.6042 26.0469 76.4062 26.4844C75.9062 27.6302 75 28.5625 73.6875 29.2812C72.3854 30 70.9375 30.3594 69.3438 30.3594ZM83.1875 29.7188C82.7708 30.125 82.2188 30.3281 81.5312 30.3281C80.8438 30.3281 80.2917 30.125 79.875 29.7188C79.4583 29.3021 79.25 28.7135 79.25 27.9531V9.45312C79.25 8.72396 79.4479 8.15104 79.8438 7.73438C80.2396 7.31771 80.7917 7.10938 81.5 7.10938C82.1979 7.10938 82.7448 7.31771 83.1406 7.73438C83.5365 8.14062 83.7344 8.71354 83.7344 9.45312V16.2344H83.8281C84.276 15.1719 84.9479 14.3594 85.8438 13.7969C86.75 13.224 87.8333 12.9375 89.0938 12.9375C90.9375 12.9375 92.3698 13.5 93.3906 14.625C94.4219 15.7396 94.9375 17.2708 94.9375 19.2188V27.9531C94.9375 28.7135 94.7292 29.3021 94.3125 29.7188C93.8958 30.125 93.3438 30.3281 92.6562 30.3281C91.9688 30.3281 91.4167 30.125 91 29.7188C90.5833 29.3021 90.375 28.7135 90.375 27.9531V20.1875C90.375 19.0938 90.1042 18.2448 89.5625 17.6406C89.0312 17.026 88.2552 16.7188 87.2344 16.7188C86.1719 16.7188 85.3333 17.0625 84.7188 17.75C84.1146 18.4271 83.8125 19.3229 83.8125 20.4375V27.9531C83.8125 28.7135 83.6042 29.3021 83.1875 29.7188ZM111.609 28.0469C110.12 29.5885 108.099 30.3594 105.547 30.3594C102.995 30.3594 100.974 29.5833 99.4844 28.0312C97.9948 26.4792 97.25 24.3385 97.25 21.6094C97.25 18.9115 98 16.7865 99.5 15.2344C101.01 13.6719 103.026 12.8906 105.547 12.8906C108.078 12.8906 110.094 13.6719 111.594 15.2344C113.094 16.7865 113.844 18.9115 113.844 21.6094C113.844 24.349 113.099 26.4948 111.609 28.0469ZM105.547 26.875C106.672 26.875 107.562 26.4167 108.219 25.5C108.875 24.5833 109.203 23.2917 109.203 21.625C109.203 19.9792 108.875 18.6927 108.219 17.7656C107.562 16.8385 106.672 16.375 105.547 16.375C104.422 16.375 103.526 16.8385 102.859 17.7656C102.203 18.6927 101.875 19.9792 101.875 21.625C101.875 23.2917 102.203 24.5833 102.859 25.5C103.516 26.4167 104.411 26.875 105.547 26.875ZM129.953 28.0469C128.464 29.5885 126.443 30.3594 123.891 30.3594C121.339 30.3594 119.318 29.5833 117.828 28.0312C116.339 26.4792 115.594 24.3385 115.594 21.6094C115.594 18.9115 116.344 16.7865 117.844 15.2344C119.354 13.6719 121.37 12.8906 123.891 12.8906C126.422 12.8906 128.438 13.6719 129.938 15.2344C131.438 16.7865 132.188 18.9115 132.188 21.6094C132.188 24.349 131.443 26.4948 129.953 28.0469ZM123.891 26.875C125.016 26.875 125.906 26.4167 126.562 25.5C127.219 24.5833 127.547 23.2917 127.547 21.625C127.547 19.9792 127.219 18.6927 126.562 17.7656C125.906 16.8385 125.016 16.375 123.891 16.375C122.766 16.375 121.87 16.8385 121.203 17.7656C120.547 18.6927 120.219 19.9792 120.219 21.625C120.219 23.2917 120.547 24.5833 121.203 25.5C121.859 26.4167 122.755 26.875 123.891 26.875ZM138.594 29.7188C138.177 30.125 137.625 30.3281 136.938 30.3281C136.25 30.3281 135.698 30.125 135.281 29.7188C134.865 29.3021 134.656 28.7135 134.656 27.9531V9.5C134.656 8.73958 134.865 8.15104 135.281 7.73438C135.698 7.31771 136.25 7.10938 136.938 7.10938C137.625 7.10938 138.177 7.31771 138.594 7.73438C139.01 8.15104 139.219 8.73958 139.219 9.5V27.9531C139.219 28.7135 139.01 29.3021 138.594 29.7188ZM149.125 30.3594C147.25 30.3594 145.682 30.0573 144.422 29.4531C143.161 28.8385 142.328 28.026 141.922 27.0156C141.807 26.7031 141.75 26.4219 141.75 26.1719C141.75 25.651 141.922 25.2292 142.266 24.9062C142.62 24.5833 143.062 24.4219 143.594 24.4219C144.302 24.4219 144.964 24.7656 145.578 25.4531C146.036 26.0469 146.547 26.4792 147.109 26.75C147.672 27.0208 148.38 27.1562 149.234 27.1562C150.068 27.1562 150.729 26.9948 151.219 26.6719C151.719 26.349 151.969 25.9115 151.969 25.3594C151.969 24.901 151.802 24.5417 151.469 24.2812C151.135 24.0104 150.562 23.7865 149.75 23.6094L146.938 23.0156C145.302 22.6615 144.068 22.0781 143.234 21.2656C142.411 20.4427 142 19.4062 142 18.1562C142 16.5521 142.641 15.276 143.922 14.3281C145.214 13.3698 146.943 12.8906 149.109 12.8906C150.797 12.8906 152.24 13.224 153.438 13.8906C154.646 14.5573 155.391 15.3802 155.672 16.3594C155.745 16.6302 155.781 16.8542 155.781 17.0312C155.781 17.5104 155.63 17.8906 155.328 18.1719C155.036 18.4531 154.604 18.5938 154.031 18.5938C153.323 18.5938 152.771 18.3594 152.375 17.8906C151.917 17.3073 151.432 16.8646 150.922 16.5625C150.422 16.25 149.792 16.0938 149.031 16.0938C148.26 16.0938 147.63 16.2604 147.141 16.5938C146.651 16.9271 146.406 17.3646 146.406 17.9062C146.406 18.3542 146.589 18.724 146.953 19.0156C147.318 19.3073 147.911 19.5417 148.734 19.7188L151.5 20.3125C153.281 20.6875 154.562 21.2292 155.344 21.9375C156.135 22.6458 156.531 23.625 156.531 24.875C156.531 26.5312 155.849 27.8594 154.484 28.8594C153.13 29.8594 151.344 30.3594 149.125 30.3594Z" fill="#1FA7FF"/>
</svg>
